<svg xmlns="http://www.w3.org/2000/svg" xmlns:xlink="http://www.w3.org/1999/xlink" width="500" zoomAndPan="magnify" viewBox="0 0 375 374.999991" height="500" preserveAspectRatio="xMidYMid meet" version="1.0"><defs><clipPath id="07b3e76481"><path d="M 45.375 64.5 L 329.8125 64.5 L 329.8125 310.5 L 45.375 310.5 Z M 45.375 64.5 " clip-rule="nonzero"/></clipPath><clipPath id="9353c792af"><path d="M 62.625 64.5 L 312.375 64.5 C 316.949219 64.5 321.335938 66.316406 324.574219 69.550781 C 327.808594 72.789062 329.625 77.175781 329.625 81.75 L 329.625 293.25 C 329.625 297.824219 327.808594 302.210938 324.574219 305.449219 C 321.335938 308.683594 316.949219 310.5 312.375 310.5 L 62.625 310.5 C 58.050781 310.5 53.664062 308.683594 50.425781 305.449219 C 47.191406 302.210938 45.375 297.824219 45.375 293.25 L 45.375 81.75 C 45.375 77.175781 47.191406 72.789062 50.425781 69.550781 C 53.664062 66.316406 58.050781 64.5 62.625 64.5 Z M 62.625 64.5 " clip-rule="nonzero"/></clipPath><clipPath id="cfae1ac50e"><path d="M 0.375 0.5 L 284.761719 0.5 L 284.761719 246.5 L 0.375 246.5 Z M 0.375 0.5 " clip-rule="nonzero"/></clipPath><clipPath id="7ff3ca86fc"><path d="M 17.625 0.5 L 267.375 0.5 C 271.949219 0.5 276.335938 2.316406 279.574219 5.550781 C 282.808594 8.789062 284.625 13.175781 284.625 17.75 L 284.625 229.25 C 284.625 233.824219 282.808594 238.210938 279.574219 241.449219 C 276.335938 244.683594 271.949219 246.5 267.375 246.5 L 17.625 246.5 C 13.050781 246.5 8.664062 244.683594 5.425781 241.449219 C 2.191406 238.210938 0.375 233.824219 0.375 229.25 L 0.375 17.75 C 0.375 13.175781 2.191406 8.789062 5.425781 5.550781 C 8.664062 2.316406 13.050781 0.5 17.625 0.5 Z M 17.625 0.5 " clip-rule="nonzero"/></clipPath><clipPath id="3f846f36fa"><rect x="0" width="285" y="0" height="247"/></clipPath><clipPath id="adf3c3c543"><path d="M 67.449219 83 L 301 83 L 301 293.65625 L 67.449219 293.65625 Z M 67.449219 83 " clip-rule="nonzero"/></clipPath></defs><g clip-path="url(#07b3e76481)"><g clip-path="url(#9353c792af)"><g transform="matrix(1, 0, 0, 1, 45, 64)"><g clip-path="url(#3f846f36fa)"><g clip-path="url(#cfae1ac50e)"><g clip-path="url(#7ff3ca86fc)"><path fill="#ffffff" d="M 0.375 0.5 L 284.8125 0.5 L 284.8125 246.5 L 0.375 246.5 Z M 0.375 0.5 " fill-opacity="1" fill-rule="nonzero"/></g></g></g></g></g></g><path fill="#99cc67" d="M 259.480469 205.765625 C 270.667969 205.765625 279.738281 214.839844 279.738281 226.039062 C 279.738281 237.234375 270.667969 246.308594 259.480469 246.308594 C 248.292969 246.308594 239.226562 237.234375 239.226562 226.039062 C 239.226562 214.839844 248.292969 205.765625 259.480469 205.765625 Z M 259.480469 205.765625 " fill-opacity="1" fill-rule="evenodd"/><path fill="#99cc67" d="M 271.582031 157.382812 C 282.125 157.382812 290.664062 165.925781 290.664062 176.476562 C 290.664062 187.027344 282.125 195.585938 271.582031 195.585938 C 261.042969 195.585938 252.488281 187.027344 252.488281 176.476562 C 252.488281 165.925781 261.042969 157.382812 271.582031 157.382812 Z M 271.582031 157.382812 " fill-opacity="1" fill-rule="evenodd"/><path fill="#99cc67" d="M 111.3125 167.714844 L 146.757812 167.714844 C 151.0625 167.714844 154.582031 171.234375 154.582031 175.546875 C 154.582031 179.855469 151.066406 183.378906 146.757812 183.378906 L 111.3125 183.378906 C 107.007812 183.378906 103.484375 179.859375 103.484375 175.546875 C 103.488281 171.238281 107.007812 167.714844 111.3125 167.714844 Z M 111.3125 167.714844 " fill-opacity="1" fill-rule="evenodd"/><path fill="#99cc67" d="M 81.300781 200.484375 L 137.144531 200.484375 L 137.144531 218.421875 L 81.300781 218.421875 Z M 81.300781 200.484375 " fill-opacity="1" fill-rule="evenodd"/><path fill="#99cc67" d="M 103.304688 268.007812 L 115.132812 268.007812 C 115.863281 268.007812 116.449219 268.609375 116.449219 269.339844 L 116.449219 280.636719 C 116.449219 281.371094 115.863281 281.957031 115.132812 281.957031 L 103.304688 281.957031 C 102.585938 281.957031 101.984375 281.371094 101.984375 280.636719 L 101.984375 269.339844 C 101.984375 268.609375 102.585938 268.007812 103.304688 268.007812 Z M 103.304688 268.007812 " fill-opacity="1" fill-rule="evenodd"/><path fill="#99cc67" d="M 82.875 268.007812 L 94.703125 268.007812 C 95.4375 268.007812 96.019531 268.609375 96.019531 269.339844 L 96.019531 280.636719 C 96.019531 281.371094 95.4375 281.957031 94.703125 281.957031 L 82.875 281.957031 C 82.160156 281.957031 81.558594 281.371094 81.558594 280.636719 L 81.558594 269.339844 C 81.558594 268.609375 82.160156 268.007812 82.875 268.007812 Z M 82.875 268.007812 " fill-opacity="1" fill-rule="evenodd"/><path fill="#99cc67" d="M 82.875 247.191406 L 94.703125 247.191406 C 95.4375 247.191406 96.019531 247.777344 96.019531 248.507812 L 96.019531 259.820312 C 96.019531 260.539062 95.4375 261.140625 94.703125 261.140625 L 82.875 261.140625 C 82.160156 261.140625 81.558594 260.539062 81.558594 259.820312 L 81.558594 248.507812 C 81.558594 247.78125 82.160156 247.191406 82.875 247.191406 Z M 82.875 247.191406 " fill-opacity="1" fill-rule="evenodd"/><path fill="#99cc67" d="M 103.304688 247.191406 L 115.132812 247.191406 C 115.863281 247.191406 116.449219 247.777344 116.449219 248.507812 L 116.449219 259.820312 C 116.449219 260.539062 115.863281 261.140625 115.132812 261.140625 L 103.304688 261.140625 C 102.585938 261.140625 101.984375 260.539062 101.984375 259.820312 L 101.984375 248.507812 C 101.984375 247.78125 102.585938 247.191406 103.304688 247.191406 Z M 103.304688 247.191406 " fill-opacity="1" fill-rule="evenodd"/><path fill="#99cc67" d="M 123.730469 226.367188 L 135.558594 226.367188 C 136.292969 226.367188 136.875 226.964844 136.875 227.683594 L 136.875 238.992188 C 136.875 239.722656 136.292969 240.308594 135.558594 240.308594 L 123.730469 240.308594 C 123 240.308594 122.414062 239.722656 122.414062 238.992188 L 122.414062 227.683594 C 122.414062 226.964844 123 226.367188 123.730469 226.367188 Z M 123.730469 226.367188 " fill-opacity="1" fill-rule="evenodd"/><path fill="#99cc67" d="M 103.304688 226.367188 L 115.132812 226.367188 C 115.863281 226.367188 116.449219 226.964844 116.449219 227.683594 L 116.449219 238.992188 C 116.449219 239.722656 115.863281 240.308594 115.132812 240.308594 L 103.304688 240.308594 C 102.585938 240.308594 101.984375 239.722656 101.984375 238.992188 L 101.984375 227.683594 C 101.984375 226.964844 102.585938 226.367188 103.304688 226.367188 Z M 103.304688 226.367188 " fill-opacity="1" fill-rule="evenodd"/><path fill="#99cc67" d="M 82.875 226.367188 L 94.703125 226.367188 C 95.4375 226.367188 96.019531 226.964844 96.019531 227.683594 L 96.019531 238.992188 C 96.019531 239.722656 95.4375 240.308594 94.703125 240.308594 L 82.875 240.308594 C 82.160156 240.308594 81.558594 239.722656 81.558594 238.992188 L 81.558594 227.683594 C 81.558594 226.964844 82.160156 226.367188 82.875 226.367188 Z M 82.875 226.367188 " fill-opacity="1" fill-rule="evenodd"/><path fill="#99cc67" d="M 123.902344 247.191406 L 135.402344 247.191406 C 136.21875 247.191406 136.875 247.847656 136.875 248.667969 L 136.875 280.476562 C 136.875 281.292969 136.21875 281.949219 135.402344 281.949219 L 123.902344 281.949219 C 123.085938 281.949219 122.414062 281.292969 122.414062 280.476562 L 122.414062 248.667969 C 122.414062 247.851562 123.085938 247.191406 123.902344 247.191406 Z M 123.902344 247.191406 " fill-opacity="1" fill-rule="evenodd"/><path fill="#99cc67" d="M 247.210938 97.429688 L 265.476562 108.625 L 269.9375 101.339844 C 272.398438 97.328125 271.125 92.03125 267.121094 89.570312 L 263.449219 87.308594 C 259.441406 84.84375 254.148438 86.121094 251.691406 90.128906 Z M 247.210938 97.429688 " fill-opacity="1" fill-rule="evenodd"/><path fill="#99cc67" d="M 207.8125 182.234375 L 218.757812 174.601562 L 219.21875 174.300781 C 217.859375 173.066406 216.371094 171.9375 214.742188 170.9375 C 213.097656 169.9375 211.421875 169.121094 209.71875 168.460938 L 209.632812 169.007812 Z M 207.8125 182.234375 " fill-opacity="1" fill-rule="evenodd"/><path fill="#99cc67" d="M 251.984375 107.121094 L 254.671875 108.765625 C 255.375 109.210938 255.601562 110.15625 255.171875 110.859375 L 246.976562 124.230469 C 246.546875 124.945312 245.605469 125.175781 244.886719 124.730469 L 242.199219 123.082031 C 241.496094 122.640625 241.269531 121.710938 241.699219 120.992188 L 249.894531 107.621094 C 250.324219 106.910156 251.269531 106.691406 251.984375 107.121094 Z M 240.941406 125.019531 L 243.730469 126.734375 C 244.417969 127.164062 244.636719 128.054688 244.214844 128.738281 L 242.628906 131.316406 C 242.214844 132 241.308594 132.21875 240.640625 131.800781 L 237.832031 130.082031 C 237.160156 129.667969 236.929688 128.765625 237.359375 128.078125 L 238.933594 125.503906 C 239.351562 124.816406 240.253906 124.597656 240.941406 125.019531 Z M 240.941406 125.019531 " fill-opacity="1" fill-rule="evenodd"/><g clip-path="url(#adf3c3c543)"><path fill="#336667" d="M 129.050781 133.851562 C 127.863281 133.851562 127.078125 134.523438 126.375 135.550781 C 124.441406 138.429688 123.128906 141.792969 122.453125 145.273438 C 122.039062 147.464844 119.378906 148.511719 117.589844 147.0625 C 115.34375 145.257812 112.683594 144.070312 109.894531 143.8125 C 107.992188 143.65625 106.617188 145.6875 106.128906 147.363281 C 105.285156 150.257812 106.503906 155.566406 107.460938 158.257812 C 108.277344 160.589844 109.402344 162.765625 110.851562 164.699219 C 111.007812 164.699219 111.164062 164.699219 111.328125 164.699219 L 146.773438 164.699219 C 146.929688 164.699219 147.085938 164.699219 147.246094 164.699219 C 150.351562 160.535156 151.964844 155.28125 152.238281 150.085938 C 152.339844 148.28125 151.964844 146.636719 150.878906 145.234375 C 150.148438 144.304688 149.335938 143.71875 148.207031 143.8125 C 145.570312 144.054688 142.683594 145.242188 140.59375 146.988281 C 138.734375 148.535156 136.074219 147.519531 135.644531 145.273438 C 134.972656 141.792969 133.65625 138.414062 131.707031 135.550781 C 131.027344 134.523438 130.226562 133.851562 129.050781 133.851562 Z M 211.742188 175.804688 L 224.1875 167.144531 L 213.816406 160.777344 Z M 220.5 177.09375 L 217.464844 179.199219 L 218.882812 179.199219 C 220.558594 179.199219 221.917969 180.558594 221.917969 182.234375 C 221.917969 183.910156 220.558594 185.269531 218.882812 185.269531 L 158.402344 185.269531 C 165.359375 191.066406 170.691406 198.753906 174.480469 207.070312 L 188.359375 207.070312 C 190.035156 207.070312 191.390625 208.429688 191.390625 210.105469 C 191.390625 211.765625 190.035156 213.125 188.359375 213.125 L 176.960938 213.125 L 179.261719 220.640625 L 218.882812 220.640625 C 220.558594 220.640625 221.917969 221.996094 221.917969 223.675781 C 221.917969 225.351562 220.558594 226.707031 218.882812 226.707031 L 180.5625 226.707031 C 182.089844 235.398438 182.121094 243.8125 180.75 250.644531 L 228.824219 250.644531 C 235.289062 250.644531 240.582031 245.332031 240.582031 238.878906 L 240.582031 155.050781 L 232.386719 168.417969 C 232.175781 168.816406 231.859375 169.191406 231.445312 169.460938 Z M 205.179688 179.199219 L 208.453125 155.480469 L 208.882812 154.207031 L 215.246094 143.828125 L 157.0625 143.828125 C 158.019531 145.847656 158.402344 148.097656 158.277344 150.398438 C 157.988281 155.738281 156.546875 161.035156 153.871094 165.628906 L 188.359375 165.628906 C 190.035156 165.628906 191.390625 166.988281 191.390625 168.664062 C 191.390625 170.324219 190.035156 171.683594 188.359375 171.683594 L 156.914062 171.683594 C 157.828125 174.101562 157.859375 176.765625 156.984375 179.199219 Z M 251.367188 96.429688 L 264.472656 104.472656 L 267.363281 99.761719 C 268.953125 97.171875 268.152344 93.738281 265.546875 92.148438 L 261.875 89.898438 C 259.285156 88.300781 255.863281 89.113281 254.277344 91.703125 Z M 256.746094 106.824219 L 248.207031 101.585938 L 215.625 154.792969 L 228.730469 162.820312 L 261.328125 109.625 Z M 244.644531 95.855469 L 249.105469 88.550781 C 252.425781 83.128906 259.59375 81.410156 265.011719 84.730469 L 268.691406 86.992188 C 274.109375 90.316406 275.84375 97.484375 272.527344 102.910156 L 246.632812 145.152344 L 246.632812 161.601562 C 256.316406 145.378906 278.703125 142.503906 292.121094 155.929688 C 307.425781 171.246094 301.117188 197.226562 280.824219 204.039062 C 293.054688 215.90625 293.28125 235.5625 281.152344 247.714844 C 270.578125 258.296875 253.941406 259.671875 241.800781 251.050781 C 238.539062 254.527344 233.917969 256.691406 228.824219 256.691406 L 182.980469 256.691406 C 189.988281 262.332031 190.621094 272.738281 184.226562 279.136719 C 181.480469 281.886719 177.699219 283.578125 173.554688 283.578125 L 150.933594 283.578125 C 150.476562 289.246094 145.726562 293.679688 139.988281 293.679688 L 78.457031 293.679688 C 72.417969 293.679688 67.484375 288.742188 67.484375 282.703125 L 67.484375 199.308594 C 67.484375 193.496094 72.21875 188.742188 78.027344 188.742188 L 95.921875 188.742188 C 98.136719 186.480469 100.527344 184.449219 103.117188 182.644531 C 98.9375 177.820312 99.828125 170.519531 104.933594 166.78125 C 101.800781 161.929688 100.128906 156.175781 99.828125 150.390625 C 99.46875 143.804688 103.816406 137.203125 110.414062 137.792969 C 112.929688 138.019531 115.347656 138.722656 117.625 139.898438 C 119.027344 135.59375 121.648438 129.992188 126.023438 128.335938 L 126.023438 112.019531 C 126.023438 102.195312 134.03125 94.199219 143.832031 94.199219 L 228.824219 94.199219 C 233.949219 94.199219 238.710938 96.40625 242.042969 100.113281 Z M 218.96875 137.753906 L 238.664062 105.589844 C 236.519531 102.296875 232.855469 100.253906 228.824219 100.253906 L 143.832031 100.253906 C 137.382812 100.253906 132.074219 105.550781 132.074219 112.019531 L 132.074219 128.335938 C 133.960938 129.054688 135.535156 130.394531 136.734375 132.160156 C 138.324219 134.507812 139.582031 137.128906 140.484375 139.90625 C 143.746094 138.230469 148.367188 136.957031 151.84375 138.460938 C 152.375 138.03125 153.042969 137.757812 153.777344 137.757812 L 218.96875 137.757812 Z M 123.902344 244.15625 L 135.402344 244.15625 C 137.890625 244.15625 139.910156 246.191406 139.910156 248.667969 L 139.910156 280.476562 C 139.910156 282.964844 137.890625 284.984375 135.402344 284.984375 L 123.902344 284.984375 C 121.695312 284.984375 119.808594 283.355469 119.453125 281.207031 C 119.164062 283.355469 117.320312 284.984375 115.148438 284.984375 L 103.316406 284.984375 C 101.160156 284.984375 99.328125 283.394531 99.015625 281.277344 C 98.699219 283.398438 96.871094 284.984375 94.722656 284.984375 L 82.890625 284.984375 C 80.488281 284.984375 78.539062 283.035156 78.539062 280.632812 L 78.539062 269.335938 C 78.539062 268.148438 79.023438 267.058594 79.828125 266.261719 L 79.8125 266.261719 C 80.601562 265.472656 81.683594 264.988281 82.886719 264.988281 L 94.714844 264.988281 C 96.859375 264.988281 98.691406 266.589844 99.003906 268.695312 C 99.144531 267.765625 99.589844 266.921875 100.234375 266.261719 C 101.023438 265.472656 102.105469 264.988281 103.308594 264.988281 L 115.136719 264.988281 C 117.179688 264.988281 118.957031 266.460938 119.386719 268.4375 L 119.386719 260.71875 C 118.957031 262.710938 117.179688 264.15625 115.136719 264.15625 L 103.316406 264.15625 C 101.160156 264.15625 99.328125 262.5625 99.015625 260.464844 C 98.699219 262.570312 96.871094 264.15625 94.722656 264.15625 L 82.890625 264.15625 C 80.488281 264.15625 78.539062 262.207031 78.539062 259.816406 L 78.539062 248.507812 C 78.539062 247.324219 79.023438 246.230469 79.828125 245.445312 L 79.8125 245.429688 C 80.601562 244.640625 81.683594 244.15625 82.886719 244.15625 L 94.714844 244.15625 C 96.859375 244.15625 98.691406 245.773438 99.003906 247.863281 C 99.144531 246.933594 99.589844 246.089844 100.234375 245.445312 L 100.234375 245.429688 C 101.023438 244.640625 102.105469 244.15625 103.308594 244.15625 L 115.136719 244.15625 C 117.3125 244.15625 119.160156 245.804688 119.441406 247.949219 C 119.808594 245.777344 121.695312 244.15625 123.902344 244.15625 Z M 133.859375 250.210938 L 125.445312 250.210938 L 125.445312 278.925781 L 133.859375 278.925781 Z M 82.890625 223.332031 L 94.71875 223.332031 C 95.90625 223.332031 96.996094 223.832031 97.78125 224.617188 L 97.796875 224.617188 C 98.429688 225.25 98.871094 226.09375 99.015625 227.039062 C 99.328125 224.929688 101.171875 223.332031 103.320312 223.332031 L 115.148438 223.332031 C 116.332031 223.332031 117.421875 223.832031 118.210938 224.617188 C 118.855469 225.25 119.296875 226.09375 119.441406 227.039062 C 119.753906 224.929688 121.601562 223.332031 123.746094 223.332031 L 135.574219 223.332031 C 136.761719 223.332031 137.835938 223.832031 138.636719 224.617188 C 139.425781 225.40625 139.910156 226.492188 139.910156 227.683594 L 139.910156 238.992188 C 139.910156 241.378906 137.953125 243.34375 135.574219 243.34375 L 123.746094 243.34375 C 122.558594 243.34375 121.46875 242.84375 120.671875 242.054688 L 120.671875 242.070312 C 120.027344 241.425781 119.585938 240.582031 119.441406 239.636719 C 119.128906 241.742188 117.28125 243.34375 115.152344 243.34375 L 103.316406 243.34375 C 102.132812 243.34375 101.042969 242.84375 100.246094 242.054688 L 100.246094 242.070312 C 99.597656 241.425781 99.160156 240.582031 99.015625 239.636719 C 98.699219 241.742188 96.871094 243.34375 94.722656 243.34375 L 82.890625 243.34375 C 81.703125 243.34375 80.613281 242.84375 79.828125 242.054688 L 79.8125 242.070312 C 79.023438 241.28125 78.539062 240.199219 78.539062 238.996094 L 78.539062 227.6875 C 78.539062 225.289062 80.515625 223.332031 82.890625 223.332031 Z M 93.003906 229.402344 L 84.589844 229.402344 L 84.589844 237.273438 L 93.003906 237.273438 Z M 113.429688 229.402344 L 105.019531 229.402344 L 105.019531 237.273438 L 113.429688 237.273438 Z M 133.859375 229.402344 L 125.445312 229.402344 L 125.445312 237.273438 L 133.859375 237.273438 Z M 113.429688 250.210938 L 105.019531 250.210938 L 105.019531 258.097656 L 113.429688 258.097656 Z M 93.003906 250.210938 L 84.589844 250.210938 L 84.589844 258.097656 L 93.003906 258.097656 Z M 93.003906 271.042969 L 84.589844 271.042969 L 84.589844 278.929688 L 93.003906 278.929688 Z M 113.429688 271.042969 L 105.019531 271.042969 L 105.019531 278.929688 L 113.429688 278.929688 Z M 81.300781 197.449219 L 137.144531 197.449219 C 138.820312 197.449219 140.175781 198.808594 140.175781 200.484375 L 140.175781 218.421875 C 140.175781 220.082031 138.820312 221.441406 137.144531 221.441406 L 81.300781 221.441406 C 79.625 221.441406 78.269531 220.082031 78.269531 218.421875 L 78.269531 200.484375 C 78.269531 198.808594 79.632812 197.449219 81.300781 197.449219 Z M 134.132812 203.519531 L 84.335938 203.519531 L 84.335938 215.386719 L 134.125 215.386719 L 134.125 203.519531 Z M 105.019531 188.75 L 140.425781 188.75 C 146.230469 188.75 150.964844 193.5 150.964844 199.3125 L 150.964844 277.53125 L 173.554688 277.53125 C 181.132812 277.53125 185.410156 268.582031 180.515625 262.699219 C 179.183594 261.097656 177.3125 259.953125 175.199219 259.5625 C 173.296875 259.207031 172.179688 257.128906 172.992188 255.34375 L 174.09375 252.464844 C 176.308594 245.324219 176.324219 235.128906 173.992188 224.609375 C 173.9375 224.4375 173.890625 224.265625 173.875 224.078125 C 173.390625 221.433594 171.101562 214.246094 169.8125 211.46875 C 169.757812 211.351562 169.699219 211.242188 169.65625 211.109375 C 165.292969 200.917969 158.53125 191.683594 149.199219 186.132812 C 148.425781 186.320312 147.601562 186.421875 146.765625 186.421875 L 111.328125 186.421875 C 110.484375 186.421875 109.667969 186.320312 108.878906 186.132812 C 107.535156 186.925781 106.25 187.800781 105.019531 188.75 Z M 140.425781 194.8125 L 78.027344 194.8125 C 75.5625 194.8125 73.535156 196.832031 73.535156 199.308594 L 73.535156 282.707031 C 73.535156 285.414062 75.75 287.632812 78.457031 287.632812 L 139.996094 287.632812 C 142.699219 287.632812 144.914062 285.414062 144.914062 282.707031 L 144.914062 199.308594 C 144.914062 196.832031 142.882812 194.8125 140.425781 194.8125 Z M 146.777344 170.75 L 111.328125 170.75 C 107.132812 170.75 104.886719 175.875 107.9375 178.9375 C 108.808594 179.808594 110.011719 180.355469 111.328125 180.355469 L 146.773438 180.355469 C 150.964844 180.355469 153.210938 175.214844 150.148438 172.167969 C 149.289062 171.296875 148.089844 170.75 146.777344 170.75 Z M 153.769531 130.238281 C 152.097656 130.238281 150.738281 128.894531 150.738281 127.21875 C 150.738281 125.542969 152.097656 124.183594 153.769531 124.183594 L 188.359375 124.183594 C 190.035156 124.183594 191.390625 125.542969 191.390625 127.21875 C 191.390625 128.894531 190.035156 130.238281 188.359375 130.238281 Z M 246.632812 198.207031 L 250.695312 196.675781 C 249.152344 195.074219 247.78125 193.285156 246.632812 191.363281 Z M 245.136719 246.019531 C 254.875 253.035156 268.339844 251.972656 276.875 243.429688 C 284.644531 235.671875 286.332031 223.617188 280.9375 214 C 279.007812 210.578125 276.304688 207.671875 273.042969 205.507812 C 272.566406 205.539062 272.066406 205.550781 271.582031 205.550781 C 266.234375 205.550781 261.210938 204.089844 256.90625 201.570312 C 254.964844 201.773438 253.089844 202.203125 251.300781 202.828125 C 249.65625 203.414062 248.097656 204.160156 246.640625 205.058594 L 246.640625 238.871094 C 246.632812 241.410156 246.105469 243.828125 245.136719 246.019531 Z M 262.097656 181.34375 C 262.097656 179.667969 263.453125 178.324219 265.128906 178.324219 C 266.789062 178.324219 268.144531 179.667969 268.144531 181.34375 C 268.144531 182.820312 272.09375 184.066406 274.339844 182.375 C 276.339844 180.859375 273.636719 179.769531 271.445312 179.527344 C 271.160156 179.511719 270.886719 179.472656 270.628906 179.386719 C 266.292969 178.582031 262.089844 177.636719 262.089844 171.628906 C 262.089844 167.890625 265.039062 165.113281 268.539062 164.140625 L 268.539062 163.25 C 268.539062 161.574219 269.898438 160.214844 271.574219 160.214844 C 273.25 160.214844 274.605469 161.574219 274.605469 163.25 L 274.605469 164.140625 C 278.109375 165.113281 281.054688 167.890625 281.054688 171.628906 C 281.054688 173.289062 279.707031 174.648438 278.035156 174.648438 C 276.367188 174.648438 275.003906 173.289062 275.003906 171.628906 C 275.003906 170.15625 271.066406 168.898438 268.8125 170.597656 C 268.398438 170.910156 268.140625 171.269531 268.140625 171.628906 C 268.140625 172.988281 270.777344 173.203125 272.390625 173.5625 C 276.765625 174.367188 281.058594 175.28125 281.058594 181.351562 C 281.058594 185.085938 278.113281 187.863281 274.609375 188.839844 L 274.609375 189.726562 L 268.546875 189.726562 L 268.546875 188.839844 C 265.042969 187.859375 262.097656 185.082031 262.097656 181.34375 Z M 287.832031 160.214844 C 278.863281 151.242188 264.300781 151.242188 255.332031 160.214844 C 246.351562 169.203125 246.351562 183.765625 255.332031 192.753906 C 264.300781 201.726562 278.863281 201.726562 287.832031 192.753906 C 296.816406 183.765625 296.816406 169.203125 287.832031 160.214844 Z M 249.609375 231.203125 C 249.609375 229.527344 250.953125 228.167969 252.628906 228.167969 C 254.304688 228.167969 255.660156 229.527344 255.660156 231.203125 C 255.660156 232.949219 260.035156 234.308594 262.53125 232.4375 C 263.015625 232.078125 263.316406 231.632812 263.316406 231.203125 C 263.316406 229.488281 260.144531 229.339844 258.539062 228.925781 C 254 228.097656 249.609375 227.109375 249.609375 220.882812 C 249.609375 216.957031 252.761719 214.054688 256.464844 213.078125 L 256.464844 211.992188 C 256.464844 210.316406 257.820312 208.957031 259.496094 208.957031 C 261.171875 208.957031 262.515625 210.316406 262.515625 211.992188 L 262.515625 213.078125 C 266.21875 214.054688 269.382812 216.957031 269.382812 220.882812 C 269.382812 222.542969 268.023438 223.902344 266.351562 223.902344 C 264.675781 223.902344 263.316406 222.542969 263.316406 220.882812 C 263.316406 219.117188 258.941406 217.761719 256.449219 219.632812 C 255.964844 220.007812 255.660156 220.453125 255.660156 220.882812 C 255.660156 222.496094 258.492188 222.699219 260.292969 223.113281 C 264.871094 223.957031 269.378906 224.886719 269.378906 231.203125 C 269.378906 235.128906 266.21875 238.015625 262.507812 239.003906 L 262.507812 240.082031 L 256.460938 240.082031 L 256.460938 239.003906 C 252.753906 238.015625 249.609375 235.128906 249.609375 231.203125 Z M 249.609375 231.203125 " fill-opacity="1" fill-rule="nonzero"/></g></svg>